# xmcd CD database file
#
# Track frame offsets:
#	150
#	34669
#	57283
#	81574
#	112916
#	134517
#	180643
#	203444
#	244348
#	263024
#
# Disc length: 4088 seconds
#
# Revision: 0
# Processed by: cddbd v1.5.2PL0 Copyright (c) Steve Scherf et al.
# Submitted via: CDex 1.51
#
DISCID=860ff60a
DTITLE=Lino Capra Vaccina - Antico Adagio
DYEAR=1978
DGENRE=New Age
TTITLE0=Elegia
TTITLE1=Voce in XY
TTITLE2=Canti delle sfere
TTITLE3=Frammenti di sonno
TTITLE4=Movimenti e silenzi per spazi bianchi
TTITLE5=Antico adagio
TTITLE6=Ondulazione melodica
TTITLE7=Motus
TTITLE8=Frammenti di suono
TTITLE9=Vocis
EXTD=YEAR: 1978
EXTT0=
EXTT1=
EXTT2=
EXTT3=
EXTT4=
EXTT5=
EXTT6=
EXTT7=
EXTT8=
EXTT9=
PLAYORDER=
